<svg width="115" height="115" viewBox="0 0 115 115" fill="none" xmlns="http://www.w3.org/2000/svg">
<path d="M20.5 110C20.5 108.619 21.6193 107.5 23 107.5H93C94.3807 107.5 95.5 108.619 95.5 110V114.5H20.5V110Z" fill="#212121" stroke="white"/>
<path d="M26.5 89C26.5 87.067 28.067 85.5 30 85.5H84C85.933 85.5 87.5 87.067 87.5 89V107.5H26.5V89Z" fill="#212121" stroke="white"/>
<mask id="path-3-inside-1_26_165" fill="white">
<path fill-rule="evenodd" clip-rule="evenodd" d="M22.4347 39.2379C21.5004 35.9866 21 32.5517 21 29V5H13.9394C9.0023 5 5 9.00231 5 13.9394C5 25.4941 12.242 35.3574 22.4347 39.2379ZM21 0H32H37H58V63V66V74V86H33C33 79.3726 38.3726 74 45 74H49V64.8978C38.2897 62.2212 29.4283 54.8769 24.7021 45.1515C10.5422 41.826 0 29.1138 0 13.9394C0 6.24088 6.24088 0 13.9394 0H21Z"/>
</mask>
<path fill-rule="evenodd" clip-rule="evenodd" d="M22.4347 39.2379C21.5004 35.9866 21 32.5517 21 29V5H13.9394C9.0023 5 5 9.00231 5 13.9394C5 25.4941 12.242 35.3574 22.4347 39.2379ZM21 0H32H37H58V63V66V74V86H33C33 79.3726 38.3726 74 45 74H49V64.8978C38.2897 62.2212 29.4283 54.8769 24.7021 45.1515C10.5422 41.826 0 29.1138 0 13.9394C0 6.24088 6.24088 0 13.9394 0H21Z" fill="#030303"/>
<path d="M22.4347 39.2379L22.0789 40.1724L23.9481 40.8841L23.3958 38.9617L22.4347 39.2379ZM21 5H22V4H21V5ZM58 0H59V-1H58V0ZM58 86V87H59V86H58ZM33 86H32V87H33V86ZM49 74V75H50V74H49ZM49 64.8978H50V64.1169L49.2425 63.9276L49 64.8978ZM24.7021 45.1515L25.6015 44.7145L25.3937 44.2867L24.9307 44.178L24.7021 45.1515ZM20 29C20 32.6461 20.5138 36.1739 21.4736 39.514L23.3958 38.9617C22.4871 35.7993 22 32.4574 22 29H20ZM20 5V29H22V5H20ZM21 4H13.9394V6H21V4ZM13.9394 4C8.45002 4 4 8.45002 4 13.9394H6C6 9.55459 9.55459 6 13.9394 6V4ZM4 13.9394C4 25.9227 11.5112 36.1492 22.0789 40.1724L22.7905 38.3033C12.9728 34.5656 6 25.0656 6 13.9394H4ZM32 -1H21V1H32V-1ZM37 -1H32V1H37V-1ZM58 -1H37V1H58V-1ZM59 63V0H57V63H59ZM59 66V63H57V66H59ZM59 74V66H57V74H59ZM59 86V74H57V86H59ZM33 87H58V85H33V87ZM45 73C37.8203 73 32 78.8203 32 86H34C34 79.9249 38.9249 75 45 75V73ZM49 73H45V75H49V73ZM48 64.8978V74H50V64.8978H48ZM23.8027 45.5886C28.656 55.5757 37.7554 63.1184 48.7575 65.8679L49.2425 63.9276C38.824 61.3239 30.2005 54.1782 25.6015 44.7145L23.8027 45.5886ZM24.9307 44.178C11.2125 40.9563 1 28.6393 1 13.9394H-1C-1 29.5884 9.87183 42.6958 24.4734 46.125L24.9307 44.178ZM1 13.9394C1 6.79317 6.79316 1 13.9394 1V-1C5.68859 -1 -1 5.6886 -1 13.9394H1ZM13.9394 1H21V-1H13.9394V1Z" fill="white" mask="url(#path-3-inside-1_26_165)"/>
<mask id="path-5-inside-2_26_165" fill="white">
<path fill-rule="evenodd" clip-rule="evenodd" d="M78 0H57V63V66V74V86H82C82 79.3726 76.6274 74 70 74H66V64.8978C76.7103 62.2212 85.5717 54.8769 90.2979 45.1515C104.458 41.826 115 29.1138 115 13.9394C115 6.24088 108.759 0 101.061 0H94H83H78ZM92.5653 39.2379C93.4996 35.9866 94 32.5517 94 29V5H101.061C105.998 5 110 9.00231 110 13.9394C110 25.4941 102.758 35.3574 92.5653 39.2379Z"/>
</mask>
<path fill-rule="evenodd" clip-rule="evenodd" d="M78 0H57V63V66V74V86H82C82 79.3726 76.6274 74 70 74H66V64.8978C76.7103 62.2212 85.5717 54.8769 90.2979 45.1515C104.458 41.826 115 29.1138 115 13.9394C115 6.24088 108.759 0 101.061 0H94H83H78ZM92.5653 39.2379C93.4996 35.9866 94 32.5517 94 29V5H101.061C105.998 5 110 9.00231 110 13.9394C110 25.4941 102.758 35.3574 92.5653 39.2379Z" fill="#212121"/>
<path d="M57 0V-1H56V0H57ZM57 86H56V87H57V86ZM82 86V87H83V86H82ZM66 74H65V75H66V74ZM66 64.8978L65.7575 63.9276L65 64.1169V64.8978H66ZM90.2979 45.1515L90.0693 44.178L89.6064 44.2867L89.3985 44.7145L90.2979 45.1515ZM92.5653 39.2379L91.6042 38.9617L91.0519 40.8841L92.9211 40.1724L92.5653 39.2379ZM94 5V4H93V5H94ZM57 1H78V-1H57V1ZM58 63V0H56V63H58ZM58 66V63H56V66H58ZM58 74V66H56V74H58ZM58 86V74H56V86H58ZM82 85H57V87H82V85ZM70 75C76.0751 75 81 79.9249 81 86H83C83 78.8203 77.1797 73 70 73V75ZM66 75H70V73H66V75ZM65 64.8978V74H67V64.8978H65ZM89.3985 44.7145C84.7995 54.1782 76.176 61.3239 65.7575 63.9276L66.2425 65.8679C77.2446 63.1184 86.344 55.5757 91.1973 45.5886L89.3985 44.7145ZM90.5266 46.125C105.128 42.6958 116 29.5884 116 13.9394H114C114 28.6393 103.787 40.9563 90.0693 44.178L90.5266 46.125ZM116 13.9394C116 5.6886 109.311 -1 101.061 -1V1C108.207 1 114 6.79317 114 13.9394H116ZM101.061 -1H94V1H101.061V-1ZM94 -1H83V1H94V-1ZM83 -1H78V1H83V-1ZM93 29C93 32.4574 92.5129 35.7993 91.6042 38.9617L93.5264 39.514C94.4862 36.1739 95 32.6461 95 29H93ZM93 5V29H95V5H93ZM94 6H101.061V4H94V6ZM101.061 6C105.445 6 109 9.55459 109 13.9394H111C111 8.45002 106.55 4 101.061 4V6ZM109 13.9394C109 25.0656 102.027 34.5656 92.2095 38.3033L92.9211 40.1724C103.489 36.1492 111 25.9227 111 13.9394H109Z" fill="white" mask="url(#path-5-inside-2_26_165)"/>
<mask id="path-7-inside-3_26_165" fill="white">
<path fill-rule="evenodd" clip-rule="evenodd" d="M45.0377 10C43.9123 10 43 10.9123 43 12.0377V32C43 39.732 49.268 46 57 46C64.732 46 71 39.732 71 32V12.0377C71 10.9123 70.0877 10 68.9623 10H57H45.0377Z"/>
</mask>
<path fill-rule="evenodd" clip-rule="evenodd" d="M45.0377 10C43.9123 10 43 10.9123 43 12.0377V32C43 39.732 49.268 46 57 46C64.732 46 71 39.732 71 32V12.0377C71 10.9123 70.0877 10 68.9623 10H57H45.0377Z" fill="#212121"/>
<path d="M44 12.0377C44 11.4646 44.4646 11 45.0377 11V9C43.36 9 42 10.36 42 12.0377H44ZM44 32V12.0377H42V32H44ZM57 45C49.8203 45 44 39.1797 44 32H42C42 40.2843 48.7157 47 57 47V45ZM57 47C65.2843 47 72 40.2843 72 32H70C70 39.1797 64.1797 45 57 45V47ZM72 32V12.0377H70V32H72ZM72 12.0377C72 10.36 70.64 9 68.9623 9V11C69.5354 11 70 11.4646 70 12.0377H72ZM68.9623 9H57V11H68.9623V9ZM45.0377 11H57V9H45.0377V11Z" fill="white" mask="url(#path-7-inside-3_26_165)"/>
<path d="M56.5245 20.0816C56.6741 19.6209 57.3259 19.6209 57.4755 20.0816L58.5451 23.3734C58.7459 23.9914 59.3218 24.4098 59.9717 24.4098H63.4329C63.9172 24.4098 64.1186 25.0296 63.7268 25.3143L60.9266 27.3488C60.4009 27.7307 60.1809 28.4078 60.3817 29.0258L61.4513 32.3176C61.6009 32.7783 61.0737 33.1613 60.6818 32.8766L57.8817 30.8422C57.3559 30.4602 56.6441 30.4602 56.1183 30.8422L53.3182 32.8766C52.9263 33.1613 52.3991 32.7783 52.5487 32.3176L53.6183 29.0258C53.8191 28.4078 53.5991 27.7307 53.0734 27.3488L50.2732 25.3143C49.8814 25.0296 50.0828 24.4098 50.5671 24.4098H54.0283C54.6782 24.4098 55.2541 23.9914 55.4549 23.3734L56.5245 20.0816Z" fill="white" stroke="white"/>
</svg>
