<svg width="156" height="156" viewBox="0 0 156 156" fill="none" xmlns="http://www.w3.org/2000/svg">
<g filter="url(#filter0_d_26_201)">
<g clip-path="url(#clip0_26_201)">
<rect x="40" y="29" width="98" height="120.867" rx="5.44444" fill="#111111"/>
<path fill-rule="evenodd" clip-rule="evenodd" d="M40 127.762C41.1408 127.762 42.0767 126.885 42.1702 125.768C42.2038 125.79 42.2438 125.802 42.2866 125.802H135.713C135.756 125.802 135.796 125.79 135.83 125.768C135.923 126.885 136.859 127.762 138 127.762C139.203 127.762 140.178 126.787 140.178 125.584C140.178 124.382 139.203 123.407 138 123.407C136.859 123.407 135.923 124.284 135.83 125.4C135.796 125.379 135.756 125.367 135.713 125.367H42.2866C42.2438 125.367 42.2038 125.379 42.1702 125.4C42.0767 124.284 41.1408 123.407 40 123.407C38.7973 123.407 37.8223 124.382 37.8223 125.584C37.8223 126.787 38.7973 127.762 40 127.762Z" fill="white"/>
</g>
<rect x="40.25" y="29.25" width="97.5" height="120.367" rx="5.19444" stroke="white" stroke-width="0.5"/>
</g>
<g filter="url(#filter1_d_26_201)">
<g clip-path="url(#clip1_26_201)">
<rect x="19" y="7" width="98" height="120.867" rx="5.44444" fill="#111111"/>
<path d="M27.37 50V46.5H28.445C29.0617 46.5 29.515 46.6567 29.805 46.97C30.0983 47.2833 30.245 47.7133 30.245 48.26C30.245 48.7967 30.0983 49.2217 29.805 49.535C29.515 49.845 29.0617 50 28.445 50H27.37ZM27.79 49.65H28.435C28.775 49.65 29.045 49.595 29.245 49.485C29.4483 49.3717 29.5933 49.2117 29.68 49.005C29.7667 48.795 29.81 48.5467 29.81 48.26C29.81 47.9667 29.7667 47.715 29.68 47.505C29.5933 47.295 29.4483 47.1333 29.245 47.02C29.045 46.9067 28.775 46.85 28.435 46.85H27.79V49.65ZM31.6514 50.06C31.4448 50.06 31.2731 50.025 31.1364 49.955C30.9998 49.885 30.8981 49.7917 30.8314 49.675C30.7648 49.5583 30.7314 49.4317 30.7314 49.295C30.7314 49.0417 30.8281 48.8467 31.0214 48.71C31.2148 48.5733 31.4781 48.505 31.8114 48.505H32.4814V48.475C32.4814 48.2583 32.4248 48.095 32.3114 47.985C32.1981 47.8717 32.0464 47.815 31.8564 47.815C31.6931 47.815 31.5514 47.8567 31.4314 47.94C31.3148 48.02 31.2414 48.1383 31.2114 48.295H30.7814C30.7981 48.115 30.8581 47.9633 30.9614 47.84C31.0681 47.7167 31.1998 47.6233 31.3564 47.56C31.5131 47.4933 31.6798 47.46 31.8564 47.46C32.2031 47.46 32.4631 47.5533 32.6364 47.74C32.8131 47.9233 32.9014 48.1683 32.9014 48.475V50H32.5264L32.5014 49.555C32.4314 49.695 32.3281 49.815 32.1914 49.915C32.0581 50.0117 31.8781 50.06 31.6514 50.06ZM31.7164 49.705C31.8764 49.705 32.0131 49.6633 32.1264 49.58C32.2431 49.4967 32.3314 49.3883 32.3914 49.255C32.4514 49.1217 32.4814 48.9817 32.4814 48.835V48.83H31.8464C31.5998 48.83 31.4248 48.8733 31.3214 48.96C31.2214 49.0433 31.1714 49.1483 31.1714 49.275C31.1714 49.405 31.2181 49.51 31.3114 49.59C31.4081 49.6667 31.5431 49.705 31.7164 49.705ZM34.4432 50C34.2165 50 34.0382 49.945 33.9082 49.835C33.7782 49.725 33.7132 49.5267 33.7132 49.24V47.875H33.2832V47.52H33.7132L33.7682 46.925H34.1332V47.52H34.8632V47.875H34.1332V49.24C34.1332 49.3967 34.1648 49.5033 34.2282 49.56C34.2915 49.6133 34.4032 49.64 34.5632 49.64H34.8232V50H34.4432ZM36.4434 50.06C36.2067 50.06 35.9967 50.0067 35.8134 49.9C35.6301 49.79 35.4851 49.6383 35.3784 49.445C35.2751 49.2517 35.2234 49.0233 35.2234 48.76C35.2234 48.5 35.2751 48.2733 35.3784 48.08C35.4817 47.8833 35.6251 47.7317 35.8084 47.625C35.9951 47.515 36.2101 47.46 36.4534 47.46C36.6934 47.46 36.9001 47.515 37.0734 47.625C37.2501 47.7317 37.3851 47.8733 37.4784 48.05C37.5717 48.2267 37.6184 48.4167 37.6184 48.62C37.6184 48.6567 37.6167 48.6933 37.6134 48.73C37.6134 48.7667 37.6134 48.8083 37.6134 48.855H35.6384C35.6484 49.045 35.6917 49.2033 35.7684 49.33C35.8484 49.4533 35.9467 49.5467 36.0634 49.61C36.1834 49.6733 36.3101 49.705 36.4434 49.705C36.6167 49.705 36.7617 49.665 36.8784 49.585C36.9951 49.505 37.0801 49.3967 37.1334 49.26H37.5484C37.4817 49.49 37.3534 49.6817 37.1634 49.835C36.9767 49.985 36.7367 50.06 36.4434 50.06ZM36.4434 47.815C36.2434 47.815 36.0651 47.8767 35.9084 48C35.7551 48.12 35.6667 48.2967 35.6434 48.53H37.2034C37.1934 48.3067 37.1167 48.1317 36.9734 48.005C36.8301 47.8783 36.6534 47.815 36.4434 47.815Z" fill="white"/>
<path d="M27.37 70V66.5H27.86L29.12 68.94L30.37 66.5H30.865V70H30.445V67.25L29.275 69.5H28.96L27.79 67.255V70H27.37ZM32.6934 70.06C32.4567 70.06 32.2467 70.0067 32.0634 69.9C31.8801 69.79 31.7351 69.6383 31.6284 69.445C31.5251 69.2517 31.4734 69.0233 31.4734 68.76C31.4734 68.5 31.5251 68.2733 31.6284 68.08C31.7317 67.8833 31.8751 67.7317 32.0584 67.625C32.2451 67.515 32.4601 67.46 32.7034 67.46C32.9434 67.46 33.1501 67.515 33.3234 67.625C33.5001 67.7317 33.6351 67.8733 33.7284 68.05C33.8217 68.2267 33.8684 68.4167 33.8684 68.62C33.8684 68.6567 33.8667 68.6933 33.8634 68.73C33.8634 68.7667 33.8634 68.8083 33.8634 68.855H31.8884C31.8984 69.045 31.9417 69.2033 32.0184 69.33C32.0984 69.4533 32.1967 69.5467 32.3134 69.61C32.4334 69.6733 32.5601 69.705 32.6934 69.705C32.8667 69.705 33.0117 69.665 33.1284 69.585C33.2451 69.505 33.3301 69.3967 33.3834 69.26H33.7984C33.7317 69.49 33.6034 69.6817 33.4134 69.835C33.2267 69.985 32.9867 70.06 32.6934 70.06ZM32.6934 67.815C32.4934 67.815 32.3151 67.8767 32.1584 68C32.0051 68.12 31.9167 68.2967 31.8934 68.53H33.4534C33.4434 68.3067 33.3667 68.1317 33.2234 68.005C33.0801 67.8783 32.9034 67.815 32.6934 67.815ZM35.3221 70C35.0954 70 34.9171 69.945 34.7871 69.835C34.6571 69.725 34.5921 69.5267 34.5921 69.24V67.875H34.1621V67.52H34.5921L34.6471 66.925H35.0121V67.52H35.7421V67.875H35.0121V69.24C35.0121 69.3967 35.0437 69.5033 35.1071 69.56C35.1704 69.6133 35.2821 69.64 35.4421 69.64H35.7021V70H35.3221ZM37.1007 70.06C36.894 70.06 36.7223 70.025 36.5857 69.955C36.449 69.885 36.3473 69.7917 36.2807 69.675C36.214 69.5583 36.1807 69.4317 36.1807 69.295C36.1807 69.0417 36.2773 68.8467 36.4707 68.71C36.664 68.5733 36.9273 68.505 37.2607 68.505H37.9307V68.475C37.9307 68.2583 37.874 68.095 37.7607 67.985C37.6473 67.8717 37.4957 67.815 37.3057 67.815C37.1423 67.815 37.0007 67.8567 36.8807 67.94C36.764 68.02 36.6907 68.1383 36.6607 68.295H36.2307C36.2473 68.115 36.3073 67.9633 36.4107 67.84C36.5173 67.7167 36.649 67.6233 36.8057 67.56C36.9623 67.4933 37.129 67.46 37.3057 67.46C37.6523 67.46 37.9123 67.5533 38.0857 67.74C38.2623 67.9233 38.3507 68.1683 38.3507 68.475V70H37.9757L37.9507 69.555C37.8807 69.695 37.7773 69.815 37.6407 69.915C37.5073 70.0117 37.3273 70.06 37.1007 70.06ZM37.1657 69.705C37.3257 69.705 37.4623 69.6633 37.5757 69.58C37.6923 69.4967 37.7807 69.3883 37.8407 69.255C37.9007 69.1217 37.9307 68.9817 37.9307 68.835V68.83H37.2957C37.049 68.83 36.874 68.8733 36.7707 68.96C36.6707 69.0433 36.6207 69.1483 36.6207 69.275C36.6207 69.405 36.6673 69.51 36.7607 69.59C36.8573 69.6667 36.9923 69.705 37.1657 69.705ZM39.603 70L38.663 67.52H39.103L39.848 69.595L40.598 67.52H41.028L40.088 70H39.603ZM42.4834 70.06C42.2468 70.06 42.0368 70.0067 41.8534 69.9C41.6701 69.79 41.5251 69.6383 41.4184 69.445C41.3151 69.2517 41.2634 69.0233 41.2634 68.76C41.2634 68.5 41.3151 68.2733 41.4184 68.08C41.5218 67.8833 41.6651 67.7317 41.8484 67.625C42.0351 67.515 42.2501 67.46 42.4934 67.46C42.7334 67.46 42.9401 67.515 43.1134 67.625C43.2901 67.7317 43.4251 67.8733 43.5184 68.05C43.6118 68.2267 43.6584 68.4167 43.6584 68.62C43.6584 68.6567 43.6568 68.6933 43.6534 68.73C43.6534 68.7667 43.6534 68.8083 43.6534 68.855H41.6784C41.6884 69.045 41.7318 69.2033 41.8084 69.33C41.8884 69.4533 41.9868 69.5467 42.1034 69.61C42.2234 69.6733 42.3501 69.705 42.4834 69.705C42.6568 69.705 42.8018 69.665 42.9184 69.585C43.0351 69.505 43.1201 69.3967 43.1734 69.26H43.5884C43.5218 69.49 43.3934 69.6817 43.2034 69.835C43.0168 69.985 42.7768 70.06 42.4834 70.06ZM42.4834 67.815C42.2834 67.815 42.1051 67.8767 41.9484 68C41.7951 68.12 41.7068 68.2967 41.6834 68.53H43.2434C43.2334 68.3067 43.1568 68.1317 43.0134 68.005C42.8701 67.8783 42.6934 67.815 42.4834 67.815ZM44.2151 70V67.52H44.5951L44.6301 67.995C44.7068 67.8317 44.8235 67.7017 44.9801 67.605C45.1368 67.5083 45.3301 67.46 45.5601 67.46V67.9H45.4451C45.2985 67.9 45.1635 67.9267 45.0401 67.98C44.9168 68.03 44.8185 68.1167 44.7451 68.24C44.6718 68.3633 44.6351 68.5333 44.6351 68.75V70H44.2151ZM46.9815 70.06C46.6849 70.06 46.4382 69.985 46.2415 69.835C46.0449 69.685 45.9299 69.4817 45.8965 69.225H46.3265C46.3532 69.355 46.4215 69.4683 46.5315 69.565C46.6449 69.6583 46.7965 69.705 46.9865 69.705C47.1632 69.705 47.2932 69.6683 47.3765 69.595C47.4599 69.5183 47.5015 69.4283 47.5015 69.325C47.5015 69.175 47.4465 69.075 47.3365 69.025C47.2299 68.975 47.0782 68.93 46.8815 68.89C46.7482 68.8633 46.6149 68.825 46.4815 68.775C46.3482 68.725 46.2365 68.655 46.1465 68.565C46.0565 68.4717 46.0115 68.35 46.0115 68.2C46.0115 67.9833 46.0915 67.8067 46.2515 67.67C46.4149 67.53 46.6349 67.46 46.9115 67.46C47.1749 67.46 47.3899 67.5267 47.5565 67.66C47.7265 67.79 47.8249 67.9767 47.8515 68.22H47.4365C47.4199 68.0933 47.3649 67.995 47.2715 67.925C47.1815 67.8517 47.0599 67.815 46.9065 67.815C46.7565 67.815 46.6399 67.8467 46.5565 67.91C46.4765 67.9733 46.4365 68.0567 46.4365 68.16C46.4365 68.26 46.4882 68.3383 46.5915 68.395C46.6982 68.4517 46.8415 68.5 47.0215 68.54C47.1749 68.5733 47.3199 68.615 47.4565 68.665C47.5965 68.7117 47.7099 68.7833 47.7965 68.88C47.8865 68.9733 47.9315 69.11 47.9315 69.29C47.9349 69.5133 47.8499 69.6983 47.6765 69.845C47.5065 69.9883 47.2749 70.06 46.9815 70.06ZM49.6465 70.06C49.4099 70.06 49.1999 70.0067 49.0165 69.9C48.8332 69.79 48.6882 69.6383 48.5815 69.445C48.4782 69.2517 48.4265 69.0233 48.4265 68.76C48.4265 68.5 48.4782 68.2733 48.5815 68.08C48.6849 67.8833 48.8282 67.7317 49.0115 67.625C49.1982 67.515 49.4132 67.46 49.6565 67.46C49.8965 67.46 50.1032 67.515 50.2765 67.625C50.4532 67.7317 50.5882 67.8733 50.6815 68.05C50.7749 68.2267 50.8215 68.4167 50.8215 68.62C50.8215 68.6567 50.8199 68.6933 50.8165 68.73C50.8165 68.7667 50.8165 68.8083 50.8165 68.855H48.8415C48.8515 69.045 48.8949 69.2033 48.9715 69.33C49.0515 69.4533 49.1499 69.5467 49.2665 69.61C49.3865 69.6733 49.5132 69.705 49.6465 69.705C49.8199 69.705 49.9649 69.665 50.0815 69.585C50.1982 69.505 50.2832 69.3967 50.3365 69.26H50.7515C50.6849 69.49 50.5565 69.6817 50.3665 69.835C50.1799 69.985 49.9399 70.06 49.6465 70.06ZM49.6465 67.815C49.4465 67.815 49.2682 67.8767 49.1115 68C48.9582 68.12 48.8699 68.2967 48.8465 68.53H50.4065C50.3965 68.3067 50.3199 68.1317 50.1765 68.005C50.0332 67.8783 49.8565 67.815 49.6465 67.815Z" fill="white"/>
<path d="M28.905 88.06C28.5617 88.06 28.265 87.985 28.015 87.835C27.7683 87.6817 27.5767 87.47 27.44 87.2C27.3033 86.9267 27.235 86.61 27.235 86.25C27.235 85.8933 27.3033 85.58 27.44 85.31C27.5767 85.0367 27.7683 84.8233 28.015 84.67C28.265 84.5167 28.5617 84.44 28.905 84.44C29.305 84.44 29.63 84.5367 29.88 84.73C30.1333 84.92 30.295 85.1867 30.365 85.53H29.9C29.8467 85.3133 29.7367 85.14 29.57 85.01C29.4067 84.8767 29.185 84.81 28.905 84.81C28.655 84.81 28.4367 84.8683 28.25 84.985C28.0633 85.0983 27.9183 85.2633 27.815 85.48C27.715 85.6933 27.665 85.95 27.665 86.25C27.665 86.55 27.715 86.8083 27.815 87.025C27.9183 87.2383 28.0633 87.4033 28.25 87.52C28.4367 87.6333 28.655 87.69 28.905 87.69C29.185 87.69 29.4067 87.6267 29.57 87.5C29.7367 87.37 29.8467 87.1983 29.9 86.985H30.365C30.295 87.3217 30.1333 87.585 29.88 87.775C29.63 87.965 29.305 88.06 28.905 88.06ZM31.7686 88.06C31.562 88.06 31.3903 88.025 31.2536 87.955C31.117 87.885 31.0153 87.7917 30.9486 87.675C30.882 87.5583 30.8486 87.4317 30.8486 87.295C30.8486 87.0417 30.9453 86.8467 31.1386 86.71C31.332 86.5733 31.5953 86.505 31.9286 86.505H32.5986V86.475C32.5986 86.2583 32.542 86.095 32.4286 85.985C32.3153 85.8717 32.1636 85.815 31.9736 85.815C31.8103 85.815 31.6686 85.8567 31.5486 85.94C31.432 86.02 31.3586 86.1383 31.3286 86.295H30.8986C30.9153 86.115 30.9753 85.9633 31.0786 85.84C31.1853 85.7167 31.317 85.6233 31.4736 85.56C31.6303 85.4933 31.797 85.46 31.9736 85.46C32.3203 85.46 32.5803 85.5533 32.7536 85.74C32.9303 85.9233 33.0186 86.1683 33.0186 86.475V88H32.6436L32.6186 87.555C32.5486 87.695 32.4453 87.815 32.3086 87.915C32.1753 88.0117 31.9953 88.06 31.7686 88.06ZM31.8336 87.705C31.9936 87.705 32.1303 87.6633 32.2436 87.58C32.3603 87.4967 32.4486 87.3883 32.5086 87.255C32.5686 87.1217 32.5986 86.9817 32.5986 86.835V86.83H31.9636C31.717 86.83 31.542 86.8733 31.4386 86.96C31.3386 87.0433 31.2886 87.1483 31.2886 87.275C31.2886 87.405 31.3353 87.51 31.4286 87.59C31.5253 87.6667 31.6603 87.705 31.8336 87.705ZM34.5987 88.06C34.302 88.06 34.0554 87.985 33.8587 87.835C33.662 87.685 33.547 87.4817 33.5137 87.225H33.9437C33.9704 87.355 34.0387 87.4683 34.1487 87.565C34.262 87.6583 34.4137 87.705 34.6037 87.705C34.7804 87.705 34.9104 87.6683 34.9937 87.595C35.077 87.5183 35.1187 87.4283 35.1187 87.325C35.1187 87.175 35.0637 87.075 34.9537 87.025C34.847 86.975 34.6954 86.93 34.4987 86.89C34.3654 86.8633 34.232 86.825 34.0987 86.775C33.9654 86.725 33.8537 86.655 33.7637 86.565C33.6737 86.4717 33.6287 86.35 33.6287 86.2C33.6287 85.9833 33.7087 85.8067 33.8687 85.67C34.032 85.53 34.252 85.46 34.5287 85.46C34.792 85.46 35.007 85.5267 35.1737 85.66C35.3437 85.79 35.442 85.9767 35.4687 86.22H35.0537C35.037 86.0933 34.982 85.995 34.8887 85.925C34.7987 85.8517 34.677 85.815 34.5237 85.815C34.3737 85.815 34.257 85.8467 34.1737 85.91C34.0937 85.9733 34.0537 86.0567 34.0537 86.16C34.0537 86.26 34.1054 86.3383 34.2087 86.395C34.3154 86.4517 34.4587 86.5 34.6387 86.54C34.792 86.5733 34.937 86.615 35.0737 86.665C35.2137 86.7117 35.327 86.7833 35.4137 86.88C35.5037 86.9733 35.5487 87.11 35.5487 87.29C35.552 87.5133 35.467 87.6983 35.2937 87.845C35.1237 87.9883 34.892 88.06 34.5987 88.06ZM36.1487 88V84.4H36.5687V85.945C36.652 85.7917 36.7704 85.6733 36.9237 85.59C37.077 85.5033 37.2437 85.46 37.4237 85.46C37.7104 85.46 37.9404 85.55 38.1137 85.73C38.287 85.9067 38.3737 86.18 38.3737 86.55V88H37.9587V86.595C37.9587 86.0783 37.7504 85.82 37.3337 85.82C37.117 85.82 36.9354 85.8983 36.7887 86.055C36.642 86.2083 36.5687 86.4283 36.5687 86.715V88H36.1487Z" fill="white"/>
<path d="M27.444 28V23.8H27.948L30.186 27.166V23.8H30.69V28H30.186L27.948 24.634V28H27.444ZM32.5407 28.072C32.2927 28.072 32.0867 28.03 31.9227 27.946C31.7587 27.862 31.6367 27.75 31.5567 27.61C31.4767 27.47 31.4367 27.318 31.4367 27.154C31.4367 26.85 31.5527 26.616 31.7847 26.452C32.0167 26.288 32.3327 26.206 32.7327 26.206H33.5367V26.17C33.5367 25.91 33.4687 25.714 33.3327 25.582C33.1967 25.446 33.0147 25.378 32.7867 25.378C32.5907 25.378 32.4207 25.428 32.2767 25.528C32.1367 25.624 32.0487 25.766 32.0127 25.954H31.4967C31.5167 25.738 31.5887 25.556 31.7127 25.408C31.8407 25.26 31.9987 25.148 32.1867 25.072C32.3747 24.992 32.5747 24.952 32.7867 24.952C33.2027 24.952 33.5147 25.064 33.7227 25.288C33.9347 25.508 34.0407 25.802 34.0407 26.17V28H33.5907L33.5607 27.466C33.4767 27.634 33.3527 27.778 33.1887 27.898C33.0287 28.014 32.8127 28.072 32.5407 28.072ZM32.6187 27.646C32.8107 27.646 32.9747 27.596 33.1107 27.496C33.2507 27.396 33.3567 27.266 33.4287 27.106C33.5007 26.946 33.5367 26.778 33.5367 26.602V26.596H32.7747C32.4787 26.596 32.2687 26.648 32.1447 26.752C32.0247 26.852 31.9647 26.978 31.9647 27.13C31.9647 27.286 32.0207 27.412 32.1327 27.508C32.2487 27.6 32.4107 27.646 32.6187 27.646ZM34.7968 28V25.024H35.2528L35.2888 25.456C35.3848 25.296 35.5128 25.172 35.6728 25.084C35.8328 24.996 36.0128 24.952 36.2128 24.952C36.4488 24.952 36.6508 25 36.8188 25.096C36.9908 25.192 37.1228 25.338 37.2148 25.534C37.3188 25.354 37.4608 25.212 37.6408 25.108C37.8248 25.004 38.0228 24.952 38.2348 24.952C38.5908 24.952 38.8748 25.06 39.0868 25.276C39.2988 25.488 39.4048 25.816 39.4048 26.26V28H38.9068V26.314C38.9068 26.006 38.8448 25.774 38.7208 25.618C38.5968 25.462 38.4188 25.384 38.1868 25.384C37.9468 25.384 37.7468 25.478 37.5868 25.666C37.4308 25.85 37.3528 26.114 37.3528 26.458V28H36.8488V26.314C36.8488 26.006 36.7868 25.774 36.6628 25.618C36.5388 25.462 36.3608 25.384 36.1288 25.384C35.8928 25.384 35.6948 25.478 35.5348 25.666C35.3788 25.85 35.3008 26.114 35.3008 26.458V28H34.7968ZM41.502 28.072C41.218 28.072 40.966 28.008 40.746 27.88C40.526 27.748 40.352 27.566 40.224 27.334C40.1 27.102 40.038 26.828 40.038 26.512C40.038 26.2 40.1 25.928 40.224 25.696C40.348 25.46 40.52 25.278 40.74 25.15C40.964 25.018 41.222 24.952 41.514 24.952C41.802 24.952 42.05 25.018 42.258 25.15C42.47 25.278 42.632 25.448 42.744 25.66C42.856 25.872 42.912 26.1 42.912 26.344C42.912 26.388 42.91 26.432 42.906 26.476C42.906 26.52 42.906 26.57 42.906 26.626H40.536C40.548 26.854 40.6 27.044 40.692 27.196C40.788 27.344 40.906 27.456 41.046 27.532C41.19 27.608 41.342 27.646 41.502 27.646C41.71 27.646 41.884 27.598 42.024 27.502C42.164 27.406 42.266 27.276 42.33 27.112H42.828C42.748 27.388 42.594 27.618 42.366 27.802C42.142 27.982 41.854 28.072 41.502 28.072ZM41.502 25.378C41.262 25.378 41.048 25.452 40.86 25.6C40.676 25.744 40.57 25.956 40.542 26.236H42.414C42.402 25.968 42.31 25.758 42.138 25.606C41.966 25.454 41.754 25.378 41.502 25.378Z" fill="white"/>
<path d="M73.19 50V46.845H72.145V46.5H74.655V46.845H73.61V50H73.19ZM75.8086 50.06C75.572 50.06 75.362 50.0067 75.1786 49.9C74.9953 49.79 74.8503 49.6383 74.7436 49.445C74.6403 49.2517 74.5886 49.0233 74.5886 48.76C74.5886 48.5 74.6403 48.2733 74.7436 48.08C74.847 47.8833 74.9903 47.7317 75.1736 47.625C75.3603 47.515 75.5753 47.46 75.8186 47.46C76.0586 47.46 76.2653 47.515 76.4386 47.625C76.6153 47.7317 76.7503 47.8733 76.8436 48.05C76.937 48.2267 76.9836 48.4167 76.9836 48.62C76.9836 48.6567 76.982 48.6933 76.9786 48.73C76.9786 48.7667 76.9786 48.8083 76.9786 48.855H75.0036C75.0136 49.045 75.057 49.2033 75.1336 49.33C75.2136 49.4533 75.312 49.5467 75.4286 49.61C75.5486 49.6733 75.6753 49.705 75.8086 49.705C75.982 49.705 76.127 49.665 76.2436 49.585C76.3603 49.505 76.4453 49.3967 76.4986 49.26H76.9136C76.847 49.49 76.7186 49.6817 76.5286 49.835C76.342 49.985 76.102 50.06 75.8086 50.06ZM75.8086 47.815C75.6086 47.815 75.4303 47.8767 75.2736 48C75.1203 48.12 75.032 48.2967 75.0086 48.53H76.5686C76.5586 48.3067 76.482 48.1317 76.3386 48.005C76.1953 47.8783 76.0186 47.815 75.8086 47.815ZM77.5403 50V47.52H77.9203L77.9553 47.995C78.032 47.8317 78.1486 47.7017 78.3053 47.605C78.462 47.5083 78.6553 47.46 78.8853 47.46V47.9H78.7703C78.6236 47.9 78.4886 47.9267 78.3653 47.98C78.242 48.03 78.1436 48.1167 78.0703 48.24C77.997 48.3633 77.9603 48.5333 77.9603 48.75V50H77.5403ZM79.3567 50V47.52H79.7367L79.7667 47.88C79.8467 47.7467 79.9534 47.6433 80.0867 47.57C80.2201 47.4967 80.3701 47.46 80.5367 47.46C80.7334 47.46 80.9017 47.5 81.0417 47.58C81.1851 47.66 81.2951 47.7817 81.3717 47.945C81.4584 47.795 81.5767 47.6767 81.7267 47.59C81.8801 47.5033 82.0451 47.46 82.2217 47.46C82.5184 47.46 82.7551 47.55 82.9317 47.73C83.1084 47.9067 83.1967 48.18 83.1967 48.55V50H82.7817V48.595C82.7817 48.3383 82.7301 48.145 82.6267 48.015C82.5234 47.885 82.3751 47.82 82.1817 47.82C81.9817 47.82 81.8151 47.8983 81.6817 48.055C81.5517 48.2083 81.4867 48.4283 81.4867 48.715V50H81.0667V48.595C81.0667 48.3383 81.0151 48.145 80.9117 48.015C80.8084 47.885 80.6601 47.82 80.4667 47.82C80.2701 47.82 80.1051 47.8983 79.9717 48.055C79.8417 48.2083 79.7767 48.4283 79.7767 48.715V50H79.3567ZM84.0844 46.97C84.001 46.97 83.931 46.9433 83.8744 46.89C83.821 46.8333 83.7944 46.7633 83.7944 46.68C83.7944 46.6 83.821 46.5333 83.8744 46.48C83.931 46.4267 84.001 46.4 84.0844 46.4C84.1644 46.4 84.2327 46.4267 84.2894 46.48C84.346 46.5333 84.3744 46.6 84.3744 46.68C84.3744 46.7633 84.346 46.8333 84.2894 46.89C84.2327 46.9433 84.1644 46.97 84.0844 46.97ZM83.8744 50V47.52H84.2944V50H83.8744ZM85.0257 50V47.52H85.4057L85.4307 47.965C85.5107 47.8083 85.6257 47.685 85.7757 47.595C85.9257 47.505 86.0957 47.46 86.2857 47.46C86.579 47.46 86.8123 47.55 86.9857 47.73C87.1623 47.9067 87.2507 48.18 87.2507 48.55V50H86.8307V48.595C86.8307 48.0783 86.6173 47.82 86.1907 47.82C85.9773 47.82 85.799 47.8983 85.6557 48.055C85.5157 48.2083 85.4457 48.4283 85.4457 48.715V50H85.0257ZM88.712 50.06C88.5053 50.06 88.3337 50.025 88.197 49.955C88.0603 49.885 87.9587 49.7917 87.892 49.675C87.8253 49.5583 87.792 49.4317 87.792 49.295C87.792 49.0417 87.8887 48.8467 88.082 48.71C88.2753 48.5733 88.5387 48.505 88.872 48.505H89.542V48.475C89.542 48.2583 89.4853 48.095 89.372 47.985C89.2587 47.8717 89.107 47.815 88.917 47.815C88.7537 47.815 88.612 47.8567 88.492 47.94C88.3753 48.02 88.302 48.1383 88.272 48.295H87.842C87.8587 48.115 87.9187 47.9633 88.022 47.84C88.1287 47.7167 88.2603 47.6233 88.417 47.56C88.5737 47.4933 88.7403 47.46 88.917 47.46C89.2637 47.46 89.5237 47.5533 89.697 47.74C89.8737 47.9233 89.962 48.1683 89.962 48.475V50H89.587L89.562 49.555C89.492 49.695 89.3887 49.815 89.252 49.915C89.1187 50.0117 88.9387 50.06 88.712 50.06ZM88.777 49.705C88.937 49.705 89.0737 49.6633 89.187 49.58C89.3037 49.4967 89.392 49.3883 89.452 49.255C89.512 49.1217 89.542 48.9817 89.542 48.835V48.83H88.907C88.6603 48.83 88.4853 48.8733 88.382 48.96C88.282 49.0433 88.232 49.1483 88.232 49.275C88.232 49.405 88.2787 49.51 88.372 49.59C88.4687 49.6667 88.6037 49.705 88.777 49.705ZM90.5921 50V46.4H91.0121V50H90.5921Z" fill="white"/>
<path d="M73.19 70V66.845H72.145V66.5H74.655V66.845H73.61V70H73.19ZM75.8236 70.06C75.5903 70.06 75.3803 70.0067 75.1936 69.9C75.007 69.7933 74.8586 69.6433 74.7486 69.45C74.642 69.2533 74.5886 69.0233 74.5886 68.76C74.5886 68.4967 74.6436 68.2683 74.7536 68.075C74.8636 67.8783 75.012 67.7267 75.1986 67.62C75.3886 67.5133 75.6003 67.46 75.8336 67.46C76.067 67.46 76.277 67.5133 76.4636 67.62C76.6503 67.7267 76.797 67.8783 76.9036 68.075C77.0136 68.2683 77.0686 68.4967 77.0686 68.76C77.0686 69.0233 77.0136 69.2533 76.9036 69.45C76.7936 69.6433 76.6436 69.7933 76.4536 69.9C76.267 70.0067 76.057 70.06 75.8236 70.06ZM75.8236 69.7C75.967 69.7 76.1003 69.665 76.2236 69.595C76.347 69.525 76.447 69.42 76.5236 69.28C76.6003 69.14 76.6386 68.9667 76.6386 68.76C76.6386 68.5533 76.6003 68.38 76.5236 68.24C76.4503 68.1 76.352 67.995 76.2286 67.925C76.1053 67.855 75.9736 67.82 75.8336 67.82C75.6903 67.82 75.557 67.855 75.4336 67.925C75.3103 67.995 75.2103 68.1 75.1336 68.24C75.057 68.38 75.0186 68.5533 75.0186 68.76C75.0186 68.9667 75.057 69.14 75.1336 69.28C75.2103 69.42 75.3086 69.525 75.4286 69.595C75.552 69.665 75.6836 69.7 75.8236 69.7ZM77.6526 70V66.4H78.0726V68.565L79.0876 67.52H79.6026L78.5026 68.64L79.7426 70H79.2076L78.0726 68.715V70H77.6526ZM81.1065 70.06C80.8698 70.06 80.6598 70.0067 80.4765 69.9C80.2932 69.79 80.1482 69.6383 80.0415 69.445C79.9382 69.2517 79.8865 69.0233 79.8865 68.76C79.8865 68.5 79.9382 68.2733 80.0415 68.08C80.1448 67.8833 80.2882 67.7317 80.4715 67.625C80.6582 67.515 80.8732 67.46 81.1165 67.46C81.3565 67.46 81.5632 67.515 81.7365 67.625C81.9132 67.7317 82.0482 67.8733 82.1415 68.05C82.2348 68.2267 82.2815 68.4167 82.2815 68.62C82.2815 68.6567 82.2798 68.6933 82.2765 68.73C82.2765 68.7667 82.2765 68.8083 82.2765 68.855H80.3015C80.3115 69.045 80.3548 69.2033 80.4315 69.33C80.5115 69.4533 80.6098 69.5467 80.7265 69.61C80.8465 69.6733 80.9732 69.705 81.1065 69.705C81.2798 69.705 81.4248 69.665 81.5415 69.585C81.6582 69.505 81.7432 69.3967 81.7965 69.26H82.2115C82.1448 69.49 82.0165 69.6817 81.8265 69.835C81.6398 69.985 81.3998 70.06 81.1065 70.06ZM81.1065 67.815C80.9065 67.815 80.7282 67.8767 80.5715 68C80.4182 68.12 80.3298 68.2967 80.3065 68.53H81.8665C81.8565 68.3067 81.7798 68.1317 81.6365 68.005C81.4932 67.8783 81.3165 67.815 81.1065 67.815ZM82.8382 70V67.52H83.2182L83.2432 67.965C83.3232 67.8083 83.4382 67.685 83.5882 67.595C83.7382 67.505 83.9082 67.46 84.0982 67.46C84.3915 67.46 84.6248 67.55 84.7982 67.73C84.9748 67.9067 85.0632 68.18 85.0632 68.55V70H84.6432V68.595C84.6432 68.0783 84.4298 67.82 84.0032 67.82C83.7898 67.82 83.6115 67.8983 83.4682 68.055C83.3282 68.2083 83.2582 68.4283 83.2582 68.715V70H82.8382Z" fill="white"/>
<path d="M73.19 88V84.845H72.145V84.5H74.655V84.845H73.61V88H73.19ZM75.3979 84.97C75.3145 84.97 75.2445 84.9433 75.1879 84.89C75.1345 84.8333 75.1079 84.7633 75.1079 84.68C75.1079 84.6 75.1345 84.5333 75.1879 84.48C75.2445 84.4267 75.3145 84.4 75.3979 84.4C75.4779 84.4 75.5462 84.4267 75.6029 84.48C75.6595 84.5333 75.6879 84.6 75.6879 84.68C75.6879 84.7633 75.6595 84.8333 75.6029 84.89C75.5462 84.9433 75.4779 84.97 75.3979 84.97ZM75.1879 88V85.52H75.6079V88H75.1879ZM77.4791 88.06C77.2425 88.06 77.0291 88.0067 76.8391 87.9C76.6525 87.79 76.5041 87.6383 76.3941 87.445C76.2875 87.2483 76.2341 87.02 76.2341 86.76C76.2341 86.5 76.2875 86.2733 76.3941 86.08C76.5041 85.8833 76.6525 85.7317 76.8391 85.625C77.0291 85.515 77.2425 85.46 77.4791 85.46C77.7725 85.46 78.0191 85.5367 78.2191 85.69C78.4225 85.8433 78.5508 86.0483 78.6041 86.305H78.1741C78.1408 86.1517 78.0591 86.0333 77.9291 85.95C77.7991 85.8633 77.6475 85.82 77.4741 85.82C77.3341 85.82 77.2025 85.855 77.0791 85.925C76.9558 85.995 76.8558 86.1 76.7791 86.24C76.7025 86.38 76.6641 86.5533 76.6641 86.76C76.6641 86.9667 76.7025 87.14 76.7791 87.28C76.8558 87.42 76.9558 87.5267 77.0791 87.6C77.2025 87.67 77.3341 87.705 77.4741 87.705C77.6475 87.705 77.7991 87.6633 77.9291 87.58C78.0591 87.4933 78.1408 87.3717 78.1741 87.215H78.6041C78.5541 87.465 78.4275 87.6683 78.2241 87.825C78.0208 87.9817 77.7725 88.06 77.4791 88.06ZM79.1907 88V84.4H79.6107V86.565L80.6257 85.52H81.1407L80.0407 86.64L81.2807 88H80.7457L79.6107 86.715V88H79.1907ZM82.6446 88.06C82.4079 88.06 82.1979 88.0067 82.0146 87.9C81.8312 87.79 81.6862 87.6383 81.5796 87.445C81.4762 87.2517 81.4246 87.0233 81.4246 86.76C81.4246 86.5 81.4762 86.2733 81.5796 86.08C81.6829 85.8833 81.8262 85.7317 82.0096 85.625C82.1962 85.515 82.4112 85.46 82.6546 85.46C82.8946 85.46 83.1012 85.515 83.2746 85.625C83.4512 85.7317 83.5862 85.8733 83.6796 86.05C83.7729 86.2267 83.8196 86.4167 83.8196 86.62C83.8196 86.6567 83.8179 86.6933 83.8146 86.73C83.8146 86.7667 83.8146 86.8083 83.8146 86.855H81.8396C81.8496 87.045 81.8929 87.2033 81.9696 87.33C82.0496 87.4533 82.1479 87.5467 82.2646 87.61C82.3846 87.6733 82.5112 87.705 82.6446 87.705C82.8179 87.705 82.9629 87.665 83.0796 87.585C83.1962 87.505 83.2812 87.3967 83.3346 87.26H83.7496C83.6829 87.49 83.5546 87.6817 83.3646 87.835C83.1779 87.985 82.9379 88.06 82.6446 88.06ZM82.6446 85.815C82.4446 85.815 82.2662 85.8767 82.1096 86C81.9562 86.12 81.8679 86.2967 81.8446 86.53H83.4046C83.3946 86.3067 83.3179 86.1317 83.1746 86.005C83.0312 85.8783 82.8546 85.815 82.6446 85.815ZM85.2732 88C85.0466 88 84.8682 87.945 84.7382 87.835C84.6082 87.725 84.5432 87.5267 84.5432 87.24V85.875H84.1132V85.52H84.5432L84.5982 84.925H84.9632V85.52H85.6932V85.875H84.9632V87.24C84.9632 87.3967 84.9949 87.5033 85.0582 87.56C85.1216 87.6133 85.2332 87.64 85.3932 87.64H85.6532V88H85.2732Z" fill="white"/>
<rect x="27" y="42" width="38" height="1" fill="#EAEAEA"/>
<rect x="27" y="62" width="38" height="1" fill="#EAEAEA"/>
<rect x="27" y="80" width="38" height="1" fill="#EAEAEA"/>
<rect x="27" y="19" width="52" height="1" fill="#EAEAEA"/>
<rect x="72" y="42" width="38" height="1" fill="#EAEAEA"/>
<rect x="72" y="62" width="38" height="1" fill="#EAEAEA"/>
<rect x="72" y="80" width="38" height="1" fill="#EAEAEA"/>
<path fill-rule="evenodd" clip-rule="evenodd" d="M19 105.762C20.1408 105.762 21.0767 104.885 21.1702 103.768C21.2038 103.79 21.2438 103.802 21.2867 103.802H114.713C114.756 103.802 114.796 103.79 114.83 103.768C114.923 104.885 115.859 105.762 117 105.762C118.203 105.762 119.178 104.787 119.178 103.584C119.178 102.382 118.203 101.407 117 101.407C115.859 101.407 114.923 102.284 114.83 103.4C114.796 103.379 114.756 103.367 114.713 103.367H21.2867C21.2438 103.367 21.2038 103.379 21.1702 103.4C21.0767 102.284 20.1408 101.407 19 101.407C17.7973 101.407 16.8223 102.382 16.8223 103.584C16.8223 104.787 17.7973 105.762 19 105.762Z" fill="#E5E5E5"/>
<rect x="36.9666" y="109.791" width="0.831515" height="11.4333" fill="white"/>
<rect x="38.2139" y="109.791" width="0.415758" height="11.4333" fill="white"/>
<rect x="39.4611" y="109.791" width="0.623636" height="11.4333" fill="white"/>
<rect x="41.5399" y="109.791" width="0.415758" height="11.4333" fill="white"/>
<rect x="42.3713" y="109.791" width="0.623636" height="11.4333" fill="white"/>
<rect x="43.8267" y="109.791" width="1.03939" height="11.4333" fill="white"/>
<rect x="45.6974" y="109.791" width="0.623636" height="11.4333" fill="white"/>
<rect x="47.3605" y="109.791" width="0.623636" height="11.4333" fill="white"/>
<rect x="48.3999" y="109.791" width="1.03939" height="11.4333" fill="white"/>
<rect x="50.063" y="109.791" width="0.623636" height="11.4333" fill="white"/>
<rect x="51.7258" y="109.791" width="0.623636" height="11.4333" fill="white"/>
<rect x="51.7258" y="109.791" width="0.623636" height="11.4333" fill="white"/>
<rect x="53.389" y="109.791" width="0.831515" height="11.4333" fill="white"/>
<rect x="54.6362" y="109.791" width="0.415758" height="11.4333" fill="white"/>
<rect width="0.831515" height="11.4333" transform="matrix(-1 0 0 1 56.5072 109.791)" fill="white"/>
<rect width="1.24727" height="11.4333" transform="matrix(-1 0 0 1 58.1702 109.791)" fill="white"/>
<rect width="0.623636" height="11.4333" transform="matrix(-1 0 0 1 59.4175 109.791)" fill="white"/>
<rect width="0.623636" height="11.4333" transform="matrix(-1 0 0 1 60.6647 109.791)" fill="white"/>
<rect width="0.831515" height="11.4333" transform="matrix(-1 0 0 1 61.9121 109.791)" fill="white"/>
<rect width="0.831515" height="11.4333" transform="matrix(-1 0 0 1 63.9907 109.791)" fill="white"/>
<rect width="0.831515" height="11.4333" transform="matrix(-1 0 0 1 65.0303 109.791)" fill="white"/>
<rect width="1.03939" height="11.4333" transform="matrix(-1 0 0 1 67.3168 109.791)" fill="white"/>
<rect width="0.415758" height="11.4333" transform="matrix(-1 0 0 1 68.1484 109.791)" fill="white"/>
<rect width="0.831515" height="11.4333" transform="matrix(-1 0 0 1 70.2271 109.791)" fill="white"/>
<rect width="0.831515" height="11.4333" transform="matrix(-1 0 0 1 71.4745 109.791)" fill="white"/>
<rect width="0.415758" height="11.4333" transform="matrix(-1 0 0 1 72.5138 109.791)" fill="white"/>
<rect width="0.831515" height="11.4333" transform="matrix(-1 0 0 1 73.969 109.791)" fill="white"/>
<rect width="1.45515" height="11.4333" transform="matrix(-1 0 0 1 75.8398 109.791)" fill="white"/>
<rect width="0.415758" height="11.4333" transform="matrix(-1 0 0 1 76.6714 109.791)" fill="white"/>
<rect width="1.45515" height="11.4333" transform="matrix(-1 0 0 1 78.5424 109.791)" fill="white"/>
<rect width="1.66303" height="11.4333" transform="matrix(-1 0 0 1 80.4133 109.791)" fill="white"/>
<rect width="0.415758" height="11.4333" transform="matrix(-1 0 0 1 81.2448 109.791)" fill="white"/>
<rect width="1.03939" height="11.4333" transform="matrix(-1 0 0 1 82.4919 109.791)" fill="white"/>
<rect width="1.45515" height="11.4333" transform="matrix(-1 0 0 1 84.3629 109.791)" fill="white"/>
<rect width="0.831515" height="11.4333" transform="matrix(-1 0 0 1 85.6101 109.791)" fill="white"/>
<rect width="0.623636" height="11.4333" transform="matrix(-1 0 0 1 87.0653 109.791)" fill="white"/>
<rect width="1.03939" height="11.4333" transform="matrix(-1 0 0 1 88.5205 109.791)" fill="white"/>
<rect width="1.45515" height="11.4333" transform="matrix(-1 0 0 1 90.8071 109.791)" fill="white"/>
<rect width="0.415758" height="11.4333" transform="matrix(-1 0 0 1 91.4307 109.791)" fill="white"/>
<rect width="0.831515" height="11.4333" transform="matrix(-1 0 0 1 92.6781 109.791)" fill="white"/>
<rect width="1.03939" height="11.4333" transform="matrix(-1 0 0 1 94.7568 109.791)" fill="white"/>
<rect width="1.24727" height="11.4333" transform="matrix(-1 0 0 1 97.0436 109.791)" fill="white"/>
<rect width="0.415758" height="11.4333" transform="matrix(-1 0 0 1 97.875 109.791)" fill="white"/>
<rect width="0.831515" height="11.4333" transform="matrix(-1 0 0 1 99.1223 109.791)" fill="white"/>
</g>
<rect x="19.25" y="7.25" width="97.5" height="120.367" rx="5.19444" stroke="white" stroke-width="0.5"/>
</g>
<defs>
<filter id="filter0_d_26_201" x="38.9111" y="27.3667" width="100.178" height="123.044" filterUnits="userSpaceOnUse" color-interpolation-filters="sRGB">
<feFlood flood-opacity="0" result="BackgroundImageFix"/>
<feColorMatrix in="SourceAlpha" type="matrix" values="0 0 0 0 0 0 0 0 0 0 0 0 0 0 0 0 0 0 127 0" result="hardAlpha"/>
<feOffset dy="-0.544444"/>
<feGaussianBlur stdDeviation="0.544444"/>
<feColorMatrix type="matrix" values="0 0 0 0 0 0 0 0 0 0 0 0 0 0 0 0 0 0 0.25 0"/>
<feBlend mode="normal" in2="BackgroundImageFix" result="effect1_dropShadow_26_201"/>
<feBlend mode="normal" in="SourceGraphic" in2="effect1_dropShadow_26_201" result="shape"/>
</filter>
<filter id="filter1_d_26_201" x="19" y="7" width="101.089" height="123.956" filterUnits="userSpaceOnUse" color-interpolation-filters="sRGB">
<feFlood flood-opacity="0" result="BackgroundImageFix"/>
<feColorMatrix in="SourceAlpha" type="matrix" values="0 0 0 0 0 0 0 0 0 0 0 0 0 0 0 0 0 0 127 0" result="hardAlpha"/>
<feOffset dx="2" dy="2"/>
<feGaussianBlur stdDeviation="0.544444"/>
<feColorMatrix type="matrix" values="0 0 0 0 0 0 0 0 0 0 0 0 0 0 0 0 0 0 0.25 0"/>
<feBlend mode="normal" in2="BackgroundImageFix" result="effect1_dropShadow_26_201"/>
<feBlend mode="normal" in="SourceGraphic" in2="effect1_dropShadow_26_201" result="shape"/>
</filter>
<clipPath id="clip0_26_201">
<rect x="40" y="29" width="98" height="120.867" rx="5.44444" fill="white"/>
</clipPath>
<clipPath id="clip1_26_201">
<rect x="19" y="7" width="98" height="120.867" rx="5.44444" fill="white"/>
</clipPath>
</defs>
</svg>
