<svg width="112" height="128" viewBox="0 0 112 128" fill="none" xmlns="http://www.w3.org/2000/svg">
<mask id="path-1-inside-1_26_134" fill="white">
<path fill-rule="evenodd" clip-rule="evenodd" d="M80.8334 67.0142C80.1998 66.1094 78.9527 65.8895 78.0479 66.5231L57.6383 80.814C56.7335 81.4476 56.5136 82.6947 57.1472 83.5995L86.9456 126.156C88.0158 127.685 90.4108 127.045 90.5761 125.186L91.8688 110.649C91.9787 109.412 93.1765 108.574 94.3758 108.893L108.479 112.651C110.282 113.131 111.702 111.099 110.632 109.571L80.8334 67.0142Z"/>
</mask>
<path fill-rule="evenodd" clip-rule="evenodd" d="M80.8334 67.0142C80.1998 66.1094 78.9527 65.8895 78.0479 66.5231L57.6383 80.814C56.7335 81.4476 56.5136 82.6947 57.1472 83.5995L86.9456 126.156C88.0158 127.685 90.4108 127.045 90.5761 125.186L91.8688 110.649C91.9787 109.412 93.1765 108.574 94.3758 108.893L108.479 112.651C110.282 113.131 111.702 111.099 110.632 109.571L80.8334 67.0142Z" fill="#212121"/>
<path d="M108.479 112.651L108.736 111.684L108.479 112.651ZM91.8688 110.649L90.8727 110.56L91.8688 110.649ZM94.3758 108.893L94.1184 109.86L94.3758 108.893ZM90.5761 125.186L89.58 125.098L90.5761 125.186ZM58.2119 81.6332L78.6215 67.3422L77.4743 65.7039L57.0647 79.9949L58.2119 81.6332ZM87.7648 125.583L57.9663 83.0259L56.328 84.1731L86.1265 126.73L87.7648 125.583ZM91.5722 125.275L92.8649 110.737L90.8727 110.56L89.58 125.098L91.5722 125.275ZM94.1184 109.86L108.221 113.617L108.736 111.684L94.6333 107.927L94.1184 109.86ZM80.0142 67.5878L109.813 110.144L111.451 108.997L81.6525 66.4407L80.0142 67.5878ZM108.221 113.617C110.926 114.337 113.056 111.29 111.451 108.997L109.813 110.144C110.348 110.909 109.638 111.924 108.736 111.684L108.221 113.617ZM92.8649 110.737C92.9198 110.119 93.5187 109.7 94.1184 109.86L94.6333 107.927C92.8343 107.448 91.0376 108.706 90.8727 110.56L92.8649 110.737ZM86.1265 126.73C87.7318 129.022 91.3243 128.062 91.5722 125.275L89.58 125.098C89.4974 126.027 88.2999 126.347 87.7648 125.583L86.1265 126.73ZM78.6215 67.3422C79.0739 67.0255 79.6974 67.1354 80.0142 67.5878L81.6525 66.4407C80.7022 65.0834 78.8315 64.7536 77.4743 65.7039L78.6215 67.3422ZM57.0647 79.9949C55.7075 80.9452 55.3777 82.8158 56.328 84.1731L57.9663 83.0259C57.6495 82.5735 57.7595 81.95 58.2119 81.6332L57.0647 79.9949Z" fill="white" mask="url(#path-1-inside-1_26_134)"/>
<mask id="path-3-inside-2_26_134" fill="white">
<path fill-rule="evenodd" clip-rule="evenodd" d="M30.9484 67.0142C31.5819 66.1094 32.829 65.8895 33.7338 66.5231L54.1434 80.814C55.0482 81.4476 55.2681 82.6947 54.6346 83.5995L24.8356 126.157C23.7654 127.685 21.3704 127.045 21.2051 125.187L19.9123 110.649C19.8024 109.412 18.6047 108.574 17.4053 108.893L3.30334 112.65C1.50042 113.131 0.0799664 111.099 1.15015 109.571L30.9484 67.0142Z"/>
</mask>
<path fill-rule="evenodd" clip-rule="evenodd" d="M30.9484 67.0142C31.5819 66.1094 32.829 65.8895 33.7338 66.5231L54.1434 80.814C55.0482 81.4476 55.2681 82.6947 54.6346 83.5995L24.8356 126.157C23.7654 127.685 21.3704 127.045 21.2051 125.187L19.9123 110.649C19.8024 109.412 18.6047 108.574 17.4053 108.893L3.30334 112.65C1.50042 113.131 0.0799664 111.099 1.15015 109.571L30.9484 67.0142Z" fill="#212121"/>
<path d="M3.30334 112.65L3.56078 113.617L3.30334 112.65ZM1.15015 109.571L0.330995 108.997L1.15015 109.571ZM19.9123 110.649L20.9084 110.56L19.9123 110.649ZM17.4053 108.893L17.6628 109.859L17.4053 108.893ZM21.2051 125.187L22.2012 125.098L21.2051 125.187ZM30.9484 67.0142L30.1292 66.4407L30.9484 67.0142ZM53.5699 81.6332L33.1603 67.3422L34.3074 65.7039L54.717 79.9949L53.5699 81.6332ZM24.0164 125.583L53.8154 83.0259L55.4537 84.1731L25.6547 126.73L24.0164 125.583ZM20.2091 125.275L18.9163 110.737L20.9084 110.56L22.2012 125.098L20.2091 125.275ZM17.6628 109.859L3.56078 113.617L3.0459 111.684L17.1479 107.927L17.6628 109.859ZM31.7675 67.5878L1.9693 110.144L0.330995 108.997L30.1292 66.4407L31.7675 67.5878ZM3.56078 113.617C0.856413 114.337 -1.27428 111.29 0.330995 108.997L1.9693 110.144C1.43421 110.908 2.14444 111.924 3.0459 111.684L3.56078 113.617ZM18.9163 110.737C18.8613 110.119 18.2624 109.7 17.6628 109.859L17.1479 107.927C18.9469 107.448 20.7435 108.706 20.9084 110.56L18.9163 110.737ZM25.6547 126.73C24.0495 129.023 20.457 128.063 20.2091 125.275L22.2012 125.098C22.2838 126.028 23.4813 126.347 24.0164 125.583L25.6547 126.73ZM33.1603 67.3422C32.7079 67.0255 32.0843 67.1354 31.7675 67.5878L30.1292 66.4407C31.0796 65.0834 32.9502 64.7536 34.3074 65.7039L33.1603 67.3422ZM54.717 79.9949C56.0742 80.9452 56.4041 82.8158 55.4537 84.1731L53.8154 83.0259C54.1322 82.5735 54.0223 81.95 53.5699 81.6332L54.717 79.9949Z" fill="white" mask="url(#path-3-inside-2_26_134)"/>
<circle cx="56.4739" cy="48.1925" r="47.6925" fill="#030303" stroke="white"/>
<circle cx="56.4737" cy="48.1924" r="38.054" fill="#212121" stroke="white"/>
<path d="M54.672 68.176V64.48C51.568 64.128 49.04 63.04 47.088 61.216C45.136 59.392 44.128 56.944 44.064 53.872H50.544C50.608 55.152 50.992 56.272 51.696 57.232C52.432 58.192 53.424 58.848 54.672 59.2V49.072C54.384 48.976 54.08 48.88 53.76 48.784C53.472 48.688 53.168 48.592 52.848 48.496C50.256 47.6 48.272 46.448 46.896 45.04C45.552 43.632 44.88 41.76 44.88 39.424C44.848 36.672 45.744 34.464 47.568 32.8C49.392 31.104 51.76 30.128 54.672 29.872V25.984H57.888V29.92C60.768 30.208 63.088 31.216 64.848 32.944C66.64 34.64 67.584 36.832 67.68 39.52H61.104C61.072 38.592 60.768 37.744 60.192 36.976C59.648 36.176 58.88 35.616 57.888 35.296V44.224C58.144 44.32 58.4 44.416 58.656 44.512C58.912 44.576 59.168 44.656 59.424 44.752C61.088 45.328 62.608 46 63.984 46.768C65.36 47.536 66.464 48.56 67.296 49.84C68.128 51.088 68.544 52.704 68.544 54.688C68.544 56.352 68.128 57.904 67.296 59.344C66.496 60.784 65.296 61.984 63.696 62.944C62.128 63.872 60.192 64.4 57.888 64.528V68.176H54.672ZM51.312 38.992C51.312 40.016 51.616 40.848 52.224 41.488C52.832 42.096 53.648 42.624 54.672 43.072V35.104C53.68 35.296 52.864 35.728 52.224 36.4C51.616 37.072 51.312 37.936 51.312 38.992ZM62.016 55.12C62.016 53.84 61.632 52.832 60.864 52.096C60.096 51.36 59.104 50.736 57.888 50.224V59.344C59.168 59.152 60.176 58.688 60.912 57.952C61.648 57.216 62.016 56.272 62.016 55.12Z" fill="#030303"/>
<path d="M54.672 68.176H53.672V69.176H54.672V68.176ZM54.672 64.48H55.672V63.587L54.7847 63.4864L54.672 64.48ZM47.088 61.216L47.7707 60.4853L47.088 61.216ZM44.064 53.872V52.872H43.0429L43.0642 53.8928L44.064 53.872ZM50.544 53.872L51.5428 53.8221L51.4952 52.872H50.544V53.872ZM51.696 57.232L50.8896 57.8234L50.8959 57.832L50.9024 57.8404L51.696 57.232ZM54.672 59.2L54.4005 60.1624L55.672 60.5211V59.2H54.672ZM54.672 49.072H55.672V48.3512L54.9882 48.1233L54.672 49.072ZM53.76 48.784L53.4438 49.7327L53.4581 49.7375L53.4727 49.7418L53.76 48.784ZM52.848 48.496L52.5213 49.4411L52.5408 49.4479L52.5607 49.4538L52.848 48.496ZM46.896 45.04L46.1726 45.7305L46.1808 45.7389L46.896 45.04ZM44.88 39.424H45.8801L45.8799 39.4124L44.88 39.424ZM47.568 32.8L48.242 33.5388L48.2489 33.5323L47.568 32.8ZM54.672 29.872L54.7596 30.8682L55.672 30.7879V29.872H54.672ZM54.672 25.984V24.984H53.672V25.984H54.672ZM57.888 25.984H58.888V24.984H57.888V25.984ZM57.888 29.92H56.888V30.825L57.7885 30.915L57.888 29.92ZM64.848 32.944L64.1474 33.6576L64.154 33.664L64.1606 33.6703L64.848 32.944ZM67.68 39.52V40.52H68.7164L68.6794 39.4843L67.68 39.52ZM61.104 39.52L60.1046 39.5545L60.1379 40.52H61.104V39.52ZM60.192 36.976L59.3651 37.5383L59.3781 37.5575L59.392 37.576L60.192 36.976ZM57.888 35.296L58.195 34.3443L56.888 33.9227V35.296H57.888ZM57.888 44.224H56.888V44.917L57.5369 45.1603L57.888 44.224ZM58.656 44.512L58.3049 45.4483L58.3582 45.4683L58.4135 45.4821L58.656 44.512ZM59.424 44.752L59.0729 45.6883L59.0848 45.6928L59.0969 45.697L59.424 44.752ZM63.984 46.768L64.4714 45.8948H64.4714L63.984 46.768ZM67.296 49.84L66.4575 50.385L66.464 50.3947L67.296 49.84ZM67.296 59.344L66.4301 58.8437L66.4259 58.851L66.4218 58.8584L67.296 59.344ZM63.696 62.944L64.2053 63.8046L64.2105 63.8015L63.696 62.944ZM57.888 64.528L57.8325 63.5295L56.888 63.582V64.528H57.888ZM57.888 68.176V69.176H58.888V68.176H57.888ZM52.224 41.488L51.499 42.1767L51.5078 42.186L51.5169 42.1951L52.224 41.488ZM54.672 43.072L54.2712 43.9882L55.672 44.601V43.072H54.672ZM54.672 35.104H55.672V33.8919L54.482 34.1222L54.672 35.104ZM52.224 36.4L51.4999 35.7103L51.491 35.7196L51.4825 35.7291L52.224 36.4ZM60.864 52.096L60.1721 52.818L60.864 52.096ZM57.888 50.224L58.2761 49.3024L56.888 48.7179V50.224H57.888ZM57.888 59.344H56.888V60.5052L58.0363 60.3329L57.888 59.344ZM60.912 57.952L61.6191 58.6591L60.912 57.952ZM55.672 68.176V64.48H53.672V68.176H55.672ZM54.7847 63.4864C51.8566 63.1543 49.5404 62.139 47.7707 60.4853L46.4053 61.9467C48.5396 63.941 51.2794 65.1017 54.5593 65.4736L54.7847 63.4864ZM47.7707 60.4853C46.0459 58.8736 45.1231 56.6976 45.0638 53.8512L43.0642 53.8928C43.1329 57.1904 44.2261 59.9104 46.4053 61.9467L47.7707 60.4853ZM44.064 54.872H50.544V52.872H44.064V54.872ZM49.5452 53.9219C49.6182 55.3817 50.061 56.6934 50.8896 57.8234L52.5024 56.6406C51.923 55.8506 51.5978 54.9223 51.5428 53.8221L49.5452 53.9219ZM50.9024 57.8404C51.7794 58.9843 52.9607 59.7563 54.4005 60.1624L54.9435 58.2376C53.8873 57.9396 53.0846 57.3997 52.4896 56.6236L50.9024 57.8404ZM55.672 59.2V49.072H53.672V59.2H55.672ZM54.9882 48.1233C54.6898 48.0238 54.3761 47.9248 54.0473 47.8262L53.4727 49.7418C53.7839 49.8352 54.0782 49.9282 54.3558 50.0207L54.9882 48.1233ZM54.0762 47.8353C53.7778 47.7358 53.4641 47.6368 53.1353 47.5382L52.5607 49.4538C52.8719 49.5472 53.1662 49.6402 53.4438 49.7327L54.0762 47.8353ZM53.1747 47.5509C50.6752 46.6869 48.8445 45.6031 47.6112 44.3411L46.1808 45.7389C47.6995 47.2929 49.8368 48.5131 52.5213 49.4411L53.1747 47.5509ZM47.6194 44.3495C46.4874 43.1637 45.88 41.5575 45.88 39.424H43.88C43.88 41.9625 44.6166 44.1003 46.1726 45.7305L47.6194 44.3495ZM45.8799 39.4124C45.8508 36.9091 46.6542 34.9873 48.242 33.5388L46.894 32.0612C44.8338 33.9407 43.8452 36.4349 43.8801 39.4356L45.8799 39.4124ZM48.2489 33.5323C49.8828 32.0131 52.0292 31.1082 54.7596 30.8682L54.5844 28.8758C51.4908 29.1478 48.9012 30.1949 46.8871 32.0677L48.2489 33.5323ZM55.672 29.872V25.984H53.672V29.872H55.672ZM54.672 26.984H57.888V24.984H54.672V26.984ZM56.888 25.984V29.92H58.888V25.984H56.888ZM57.7885 30.915C60.483 31.1845 62.5771 32.1158 64.1474 33.6576L65.5486 32.2304C63.5989 30.3162 61.053 29.2315 57.9875 28.925L57.7885 30.915ZM64.1606 33.6703C65.744 35.1688 66.5931 37.1039 66.6806 39.5557L68.6794 39.4843C68.5749 36.5601 67.536 34.1112 65.5354 32.2177L64.1606 33.6703ZM67.68 38.52H61.104V40.52H67.68V38.52ZM62.1034 39.4855C62.0641 38.3458 61.6863 37.3018 60.992 36.376L59.392 37.576C59.8497 38.1862 60.0799 38.8382 60.1046 39.5545L62.1034 39.4855ZM61.0189 36.4137C60.3398 35.415 59.3813 34.727 58.195 34.3443L57.581 36.2477C58.3787 36.505 58.9562 36.937 59.3651 37.5383L61.0189 36.4137ZM56.888 35.296V44.224H58.888V35.296H56.888ZM57.5369 45.1603C57.7929 45.2563 58.0489 45.3523 58.3049 45.4483L59.0071 43.5757C58.7511 43.4797 58.4951 43.3837 58.2391 43.2877L57.5369 45.1603ZM58.4135 45.4821C58.6314 45.5366 58.8511 45.6052 59.0729 45.6883L59.7751 43.8157C59.4849 43.7068 59.1926 43.6154 58.8985 43.5419L58.4135 45.4821ZM59.0969 45.697C60.7118 46.256 62.1774 46.9049 63.4966 47.6412L64.4714 45.8948C63.0386 45.0951 61.4642 44.4 59.7511 43.807L59.0969 45.697ZM63.4966 47.6412C64.7354 48.3326 65.7171 49.2458 66.4576 50.385L68.1344 49.295C67.2109 47.8742 65.9846 46.7394 64.4714 45.8948L63.4966 47.6412ZM66.464 50.3947C67.1562 51.4331 67.544 52.8388 67.544 54.688H69.544C69.544 52.5692 69.0998 50.7429 68.128 49.2853L66.464 50.3947ZM67.544 54.688C67.544 56.1765 67.1742 57.5559 66.4301 58.8437L68.1619 59.8443C69.0818 58.2521 69.544 56.5275 69.544 54.688H67.544ZM66.4218 58.8584C65.7179 60.1255 64.6514 61.2046 63.1815 62.0865L64.2105 63.8015C65.9406 62.7634 67.2741 61.4425 68.1702 59.8296L66.4218 58.8584ZM63.1867 62.0834C61.7886 62.9109 60.018 63.4081 57.8325 63.5295L57.9435 65.5265C60.366 65.3919 62.4674 64.8331 64.2053 63.8046L63.1867 62.0834ZM56.888 64.528V68.176H58.888V64.528H56.888ZM57.888 67.176H54.672V69.176H57.888V67.176ZM50.312 38.992C50.312 40.2283 50.6863 41.3213 51.499 42.1767L52.949 40.7993C52.5457 40.3747 52.312 39.8037 52.312 38.992H50.312ZM51.5169 42.1951C52.2351 42.9133 53.1655 43.5044 54.2712 43.9882L55.0728 42.1558C54.1305 41.7436 53.4289 41.2787 52.9311 40.7809L51.5169 42.1951ZM55.672 43.072V35.104H53.672V43.072H55.672ZM54.482 34.1222C53.305 34.35 52.296 34.8743 51.4999 35.7103L52.9481 37.0897C53.432 36.5816 54.055 36.242 54.862 36.0858L54.482 34.1222ZM51.4825 35.7291C50.681 36.6149 50.312 37.7317 50.312 38.992H52.312C52.312 38.1403 52.551 37.5291 52.9655 37.0709L51.4825 35.7291ZM63.016 55.12C63.016 53.6271 62.56 52.3363 61.5559 51.374L60.1721 52.818C60.704 53.3277 61.016 54.0529 61.016 55.12H63.016ZM61.5559 51.374C60.6813 50.5359 59.5786 49.8508 58.2761 49.3024L57.4999 51.1456C58.6294 51.6212 59.5107 52.1841 60.1721 52.818L61.5559 51.374ZM56.888 50.224V59.344H58.888V50.224H56.888ZM58.0363 60.3329C59.4756 60.117 60.6983 59.58 61.6191 58.6591L60.2049 57.2449C59.6537 57.796 58.8604 58.187 57.7397 58.3551L58.0363 60.3329ZM61.6191 58.6591C62.5635 57.7147 63.016 56.5062 63.016 55.12H61.016C61.016 56.0378 60.7325 56.7173 60.2049 57.2449L61.6191 58.6591Z" fill="white"/>
</svg>
