<svg width="47" height="48" viewBox="0 0 47 48" fill="none" xmlns="http://www.w3.org/2000/svg">
<path d="M15.6685 24.0004C15.6685 19.601 19.1747 16.0336 23.5009 16.0336C27.8272 16.0336 31.3352 19.601 31.3352 24.0004C31.3352 28.3997 27.8272 31.9671 23.5009 31.9671C19.1747 31.9671 15.6685 28.3997 15.6685 24.0004ZM11.4335 24.0004C11.4335 30.7779 16.8361 36.2719 23.5009 36.2719C30.1658 36.2719 35.5684 30.7779 35.5684 24.0004C35.5684 17.2228 30.1658 11.7289 23.5009 11.7289C16.8361 11.7289 11.4335 17.2228 11.4335 24.0004ZM33.226 11.2423C33.2254 12.8261 34.4875 14.1106 36.045 14.1112C37.6025 14.1119 38.8656 12.8284 38.8662 11.2446C38.8669 9.66075 37.6048 8.37628 36.0472 8.37564H36.0461C34.4894 8.37638 33.2274 9.65921 33.226 11.2423ZM14.0066 43.453C11.7153 43.3469 10.47 42.9588 9.64234 42.6309C8.54513 42.1965 7.76227 41.6792 6.93917 40.8433C6.11607 40.0074 5.60657 39.2121 5.1813 38.0963C4.85868 37.2551 4.47702 35.9883 4.37287 33.6583C4.25893 31.1393 4.23619 30.3825 4.23619 24.0005C4.23619 17.6186 4.26081 16.8639 4.37287 14.3428C4.47721 12.0128 4.86169 10.7485 5.1813 9.90475C5.60845 8.78899 6.1172 7.99289 6.93917 7.15587C7.76114 6.31886 8.54325 5.80075 9.64234 5.36828C10.4696 5.04021 11.7153 4.6521 14.0066 4.54618C16.4837 4.43032 17.2279 4.40719 23.5009 4.40719C29.774 4.40719 30.5189 4.43223 32.9981 4.54618C35.2894 4.65229 36.5327 5.04326 37.3624 5.36828C38.4596 5.80075 39.2424 6.32001 40.0655 7.15587C40.8886 7.99174 41.3962 8.78899 41.8234 9.90475C42.146 10.746 42.5277 12.0128 42.6318 14.3428C42.7458 16.8639 42.7685 17.6186 42.7685 24.0005C42.7685 30.3825 42.7458 31.1372 42.6318 33.6583C42.5275 35.9883 42.144 37.2547 41.8234 38.0963C41.3962 39.2121 40.8875 40.0082 40.0655 40.8433C39.2436 41.6784 38.4596 42.1965 37.3624 42.6309C36.5351 42.959 35.2894 43.3471 32.9981 43.453C30.521 43.5689 29.7768 43.592 23.5009 43.592C17.2251 43.592 16.483 43.5689 14.0066 43.453ZM13.812 0.246779C11.3102 0.362638 9.6006 0.766041 8.10764 1.35681C6.56146 1.96688 5.25255 2.78535 3.94459 4.11333C2.63662 5.44131 1.83383 6.77446 1.23389 8.34678C0.65295 9.86594 0.256254 11.6034 0.142322 14.1476C0.0265091 16.6957 0 17.5103 0 24.0004C0 30.4904 0.0265091 31.305 0.142322 33.8531C0.256254 36.3975 0.65295 38.1348 1.23389 39.6539C1.83383 41.2253 2.63681 42.56 3.94459 43.8874C5.25237 45.2148 6.56146 46.0321 8.10764 46.6439C9.60342 47.2347 11.3102 47.6381 13.812 47.7539C16.3191 47.8698 17.1188 47.8987 23.5009 47.8987C29.883 47.8987 30.6841 47.8717 33.1899 47.7539C35.6919 47.6381 37.4003 47.2347 38.8942 46.6439C40.4395 46.0321 41.7493 45.2154 43.0573 43.8874C44.3653 42.5594 45.1664 41.2253 45.768 39.6539C46.3489 38.1348 46.7475 36.3973 46.8596 33.8531C46.9735 31.3031 47 30.4904 47 24.0004C47 17.5103 46.9735 16.6957 46.8596 14.1476C46.7456 11.6033 46.3489 9.86499 45.768 8.34678C45.1664 6.77541 44.3632 5.44342 43.0573 4.11333C41.7514 2.78325 40.4395 1.96688 38.8961 1.35681C37.4003 0.766041 35.6917 0.360726 33.1918 0.246779C30.686 0.13092 29.8849 0.102051 23.5028 0.102051C17.1207 0.102051 16.3191 0.129008 13.812 0.246779Z" fill="white"/>
</svg>
