<svg width="50" height="39" viewBox="0 0 50 39" fill="none" xmlns="http://www.w3.org/2000/svg">
<g clip-path="url(#clip0_26_21)">
<path d="M50 4.74898C48.1277 5.54143 46.1417 6.0616 44.1082 6.29218C46.2264 5.07926 47.8527 3.15856 48.6186 0.870062C46.605 2.01167 44.402 2.81601 42.1047 3.24832C40.2334 1.34366 37.5676 0.15332 34.617 0.15332C28.9518 0.15332 24.3586 4.54147 24.3586 9.9537C24.3586 10.7219 24.4494 11.4699 24.6242 12.1873C16.0988 11.7785 8.54023 7.87681 3.48066 1.94732C2.59785 3.3948 2.09199 5.07852 2.09199 6.87438C2.09199 10.2747 3.90313 13.2743 6.65547 15.0319C5.02646 14.9832 3.4333 14.5628 2.00898 13.8059C2.0084 13.847 2.0084 13.888 2.0084 13.9293C2.0084 18.6778 5.54434 22.639 10.2369 23.5393C8.72634 23.9318 7.14185 23.9893 5.60449 23.7073C6.90977 27.6009 10.6982 30.4343 15.1869 30.5136C11.6762 33.1421 7.25293 34.709 2.44707 34.709C1.61895 34.709 0.802539 34.6625 0 34.572C4.53965 37.3528 9.93164 38.9753 15.7246 38.9753C34.5932 38.9753 44.9109 24.0413 44.9109 11.0903C44.9109 10.6652 44.9012 10.2426 44.8813 9.82233C46.8895 8.43529 48.6229 6.71729 50 4.74898Z" fill="white"/>
</g>
<defs>
<clipPath id="clip0_26_21">
<rect width="50" height="39" fill="white"/>
</clipPath>
</defs>
</svg>
